<?xml version="1.0" standalone="no"?>
<!DOCTYPE svg PUBLIC "-//W3C//DTD SVG 20010904//EN"
 "http://www.w3.org/TR/2001/REC-SVG-20010904/DTD/svg10.dtd">
<svg version="1.0" xmlns="http://www.w3.org/2000/svg"
 width="1293.000000pt" height="576.000000pt" viewBox="0 0 1293.000000 576.000000"
 preserveAspectRatio="xMidYMid meet">

<g transform="translate(0.000000,576.000000) scale(0.100000,-0.100000)"
fill="#000000" stroke="none">
<path d="M5850 5180 c0 -6 96 -10 270 -10 149 0 270 -2 270 -4 0 -13 -125
-267 -207 -419 l-95 -178 -119 3 c-76 2 -118 -1 -116 -7 6 -16 2562 -19 2574
-3 7 9 8 122 4 318 l-6 305 -1287 3 c-857 1 -1288 -1 -1288 -8z"/>
<path d="M3997 3823 c-17 -16 -7 -32 16 -24 12 4 194 6 405 4 339 -3 382 -2
382 12 0 13 -46 15 -398 15 -219 0 -402 -3 -405 -7z"/>
<path d="M3992 3504 c-2 -227 1 -284 12 -293 9 -8 123 -10 402 -9 l389 3 1
260 c0 143 -1 243 -3 223 -4 -34 -7 -38 -41 -44 -20 -4 -40 -11 -43 -16 -3 -5
-39 -11 -80 -14 -40 -2 -78 -9 -83 -14 -6 -6 -32 -10 -59 -10 -44 0 -49 -2
-44 -20 6 -23 -13 -26 -62 -9 -24 9 -35 9 -44 0 -6 -6 -37 -11 -69 -11 -32 0
-58 -4 -58 -10 0 -5 -13 -10 -29 -10 -16 0 -31 -6 -35 -15 -4 -11 -20 -15 -56
-15 -41 0 -50 3 -51 18 0 14 -2 14 -8 -3 -7 -17 -9 -15 -16 15 -4 19 -11 85
-15 145 -5 85 -7 45 -8 -171z"/>
<path d="M5601 2456 c-8 -9 -11 -99 -9 -307 l3 -294 900 0 900 0 3 308 2 307
-894 0 c-745 0 -895 -2 -905 -14z"/>
<path d="M6367 1113 c-4 -3 -7 -142 -7 -308 l0 -302 548 -7 c680 -8 5781 -8
5834 0 l38 7 0 308 0 309 -3203 0 c-1762 0 -3207 -3 -3210 -7z"/>
</g>
</svg>
