<?xml version="1.0" standalone="no"?>
<!DOCTYPE svg PUBLIC "-//W3C//DTD SVG 20010904//EN"
 "http://www.w3.org/TR/2001/REC-SVG-20010904/DTD/svg10.dtd">
<svg version="1.0" xmlns="http://www.w3.org/2000/svg"
 width="1293.000000pt" height="576.000000pt" viewBox="0 0 1293.000000 576.000000"
 preserveAspectRatio="xMidYMid meet">

<g transform="translate(0.000000,576.000000) scale(0.100000,-0.100000)"
fill="#000000" stroke="none">
<path d="M0 2880 l0 -2880 6465 0 6465 0 0 2880 0 2880 -6465 0 -6465 0 0
-2880z m8430 1985 l0 -315 -1285 0 -1285 0 0 315 0 315 1285 0 1285 0 0 -315z
m-3632 -1352 c-2 -231 -6 -298 -15 -297 -7 1 -186 2 -398 3 l-385 1 0 295 0
295 400 0 400 0 -2 -297z m2602 -1348 l0 -305 -900 0 -900 0 0 305 0 305 900
0 900 0 0 -305z m5380 -1355 l0 -290 -3195 0 -3195 0 0 290 0 290 3195 0 3195
0 0 -290z"/>
</g>
</svg>
